<svg xmlns="http://www.w3.org/2000/svg" viewBox="0 0 37.68 24.88"><defs><style>.cls-1{fill:#595959;}</style></defs><title>Powerup_earthquake</title><g id="Layer_2" data-name="Layer 2"><g id="Crop_Marks" data-name="Crop Marks"><polygon class="cls-1" points="22.48 24.88 0 18.94 0.04 14.37 22.52 20.3 22.48 24.88"/><polygon class="cls-1" points="37.64 12.66 23.25 24.67 23.29 20.09 37.68 8.09 37.64 12.66"/><path class="cls-1" d="M24.91,3.73c0,.11,0,.2-.08.23a7.91,7.91,0,0,0-1,.69c-.29.23-.61.41-.91.62a.23.23,0,0,0-.07.14l-.21,1.27L22.53,7a.19.19,0,0,0,.08.22l.79.57.08.07a.29.29,0,0,1,.12.25c0,.37.06.75.1,1.13,0,.19,0,.24.11.22L25,9.15,25.76,9a.07.07,0,0,1,.06,0c.1,0,.08-.12,0-.34-.2-.57-.41-1.14-.62-1.71l-.06-.16c-.12-.36-.13-.37,0-.48l.8-1a.42.42,0,0,1-.06.2c-.14.29-.28.59-.43.87,0,.08,0,.17.07.33l1.12,2.15c.08.15.12.19.16.13.2-.26.41-.51.61-.76L28,7.36c.05-.06.1-.06.19.07s.24.28.36.44.18.13.23.06l.62-.87,0,0c0,.09,0,.1,0,.13L29,8.07a1,1,0,0,0,0,.1c0,.05,0,.11,0,.2l.28.33c.07.1.12.09.17.07l1-.42.26-.07a.74.74,0,0,1-.22.14,2.49,2.49,0,0,0-.48.26c-.29.18-.59.35-.89.52,0,0-.08,0-.14,0l-.94-.76c-.09-.08-.15-.08-.2,0-.32.49-.63,1-1,1.43-.1.14-.27.15-.42.22l-.25.08c-.07,0-.07.11,0,.29.12.41.24.82.35,1.22,0,0-.06-.05-.08-.09-.21-.34-.42-.68-.62-1-.08-.12-.14-.18-.19-.16l-.65.24L24,11l-.71.27a3,3,0,0,1-.42.15s-.06.05,0,.18c.09.39.17.78.25,1.17.05.23.12.25.19.29l1,.59,1.21.69c.08,0,.12.12.16.29.08.4.09.41.24.36s.37-.11.56-.15a1.57,1.57,0,0,1-.48.25l-.11.05c-.08,0-.08.18,0,.44s.09.14.13.15l.72.17h0L37.4,7Z"/><path class="cls-1" d="M12.69,3.22l1.12,2c.07.13.12.17.18.17h2.13c.09,0,.11,0,.14.26.12.77.23,1.54.34,2.3a.38.38,0,0,0,.13.26l.78.5a1.51,1.51,0,0,0,.72.2c.31.06.6.07.9.12.08,0,.13-.05.16-.18.15-.68.3-1.36.46-2a1.29,1.29,0,0,0,0-.51c-.21-1.23-.42-2.45-.62-3.67,0,0,0-.09,0-.12.11.33.21.66.31,1,.41,1.26.81,2.51,1.21,3.76a3.27,3.27,0,0,0,.17.53c.05.14.09.21.13.14A4.39,4.39,0,0,0,21.63,6c.06-.54.17-1,.26-1.5,0-.18.14-.17.23-.21l.69-.3,1.11-.53-9.08-2.4L12.55,3Z"/><path class="cls-1" d="M23.31,18.06c-.07.09,0,.31-.06.48v.29L26.68,16h-.07l-.82,0c-.05,0-.11-.06-.16-.19s-.13-.21-.17-.13a3.28,3.28,0,0,1-.39.56l.16-.32c.06-.14.13-.28.2-.41s0-.17-.05-.32-.09-.25-.17-.27c-.41-.09-.82-.21-1.23-.32-.1,0-.16,0-.19.16-.06.32-.14.62-.22.91,0,.11,0,.16.08.27s.26.33.42.55a1.25,1.25,0,0,1-.39-.27c-.14-.12-.23-.13-.25.09a3.17,3.17,0,0,1-.13.49.26.26,0,0,0,.08.25c.08.08.16.18.24.27a.29.29,0,0,1,.09.12c0,.09,0,.1,0,.12A5,5,0,0,1,23.31,18.06Z"/><path class="cls-1" d="M21.16,16.21a.16.16,0,0,0,0-.11c0-.45.07-.9.11-1.34a.43.43,0,0,0-.12-.35c-.2-.24-.41-.5-.61-.77s-.16-.16-.2,0L19.65,16a.36.36,0,0,1-.15.24,4.57,4.57,0,0,1-.47.29c-.24.08-.38.37-.47.76-.06.22-.13.42-.19.64,0-.1,0-.13,0-.22A4.29,4.29,0,0,0,18,18l2.32.61a3.47,3.47,0,0,1,.51-.56c.23-.19.23-.73.3-1.18a1.21,1.21,0,0,0,0-.27c-.46.34-.92.68-1.37,1l0,0,.48-.44Z"/><path class="cls-1" d="M23.1,18.41c-.09,0-.1.19-.19.19.06-.16.12-.32.19-.48s.15-.35.23-.53a.1.1,0,0,0,0-.1c0-.07-.05-.07-.07-.08l-.35-.26a.18.18,0,0,1-.08-.2,1.11,1.11,0,0,0,0-.35l-.54.46,0,0a4.06,4.06,0,0,1,.47-.46.7.7,0,0,0,.18-.45c.09-.57.18-1.12.26-1.67a.37.37,0,0,0,0-.11c-.06-.09-.1-.05-.14-.08l-.07,0c-.43-.12-.43-.12-.61.39s-.43,1.21-.66,1.79a1,1,0,0,0,.05.63,2.34,2.34,0,0,1,.11.4,1.52,1.52,0,0,1-.18-.36c-.09-.18-.14-.24-.17-.12s-.13.34-.18.53c-.13.5-.44.62-.67.89l-.24.24,2.31.61.44-.36C23.17,18.7,23.15,18.56,23.1,18.41Z"/><path class="cls-1" d="M10.51,5.08a7.79,7.79,0,0,0,.72.34,1.38,1.38,0,0,0,.57,0c.49,0,1,0,1.47,0,.11,0,.11,0,0-.27L12.4,3.1,10.21,4.94Z"/><path class="cls-1" d="M18.38,17a1.29,1.29,0,0,0,0-.28c0-.31.08-.37.2-.4a1.55,1.55,0,0,0,.49-.29c.08-.07.09-.3.12-.47l.24-1.29a.29.29,0,0,0,0-.14c0-.08-.06-.06-.08-.06l-1.63,0s-.09,0-.13.09c-.34.62-.69,1.23-1,1.85a.53.53,0,0,1-.54.35,11,11,0,0,0-1.14,0c-.05,0-.07.07-.08.15s0,.45-.06.69l3.19.84a1,1,0,0,1,.08-.11,3.47,3.47,0,0,1,.25-.29C18.37,17.47,18.37,17.22,18.38,17Z"/><path class="cls-1" d="M14.3,16.09c0-.15,0-.2.1-.2l1.38,0a.34.34,0,0,1,.14,0c.15,0,.25-.06.32-.27s.15-.35.21-.58l-1.89,0v0l.45-.07,1.61-.25c.07,0,.09-.12.13-.21a5.73,5.73,0,0,1,.68-1.14s0,0,0-.11l-4.64-1.43,0,0,.56,0,.27,0s.06,0,.06-.06a.64.64,0,0,0-.08-.19c-.28-.51-.56-1-.83-1.57l.29.38c.35.46.7.91,1.05,1.38a.19.19,0,0,0,.16.1l2,0h1.67c.14,0,.14,0,0-.4l-.57-1.34a.71.71,0,0,0-.22-.32l-1.5-1c-.12-.08-.12-.09-.14-.33l-.12-1.83c0-.2,0-.23-.12-.24l-1.19-.09-1.93-.16-.8,0c-.14,0-.31-.19-.47-.28a1.38,1.38,0,0,1-.23-.16A.54.54,0,0,0,10,5.5l-.58.13h0L.21,13.28,14.29,17C14.3,16.69,14.3,16.39,14.3,16.09Z"/><path class="cls-1" d="M10,5.21v0h0l-.12.1Z"/><path class="cls-1" d="M29.58,2.68a1.35,1.35,0,0,1,1.31.57,1.4,1.4,0,0,0,1.44.61,1.46,1.46,0,0,1,1.43.48c.41.51,1,.41,1.54.36a1.71,1.71,0,0,1,1.61.63c.1.13.22.28.1.44s-.35.1-.47,0a1.55,1.55,0,0,0-1.74-.37A1.13,1.13,0,0,1,33.59,5a1.32,1.32,0,0,0-1.48-.48A1.31,1.31,0,0,1,30.72,4a1.46,1.46,0,0,0-1.36-.64c-.23,0-.62.13-.63-.26s.36-.34.62-.38A1.64,1.64,0,0,1,29.58,2.68Z"/><path class="cls-1" d="M1.2,9.65a1.6,1.6,0,0,1,1.31-.89,1.66,1.66,0,0,0,1.43-1A1.85,1.85,0,0,1,5.29,6.71c.58,0,1-.7,1.37-1.29A2.11,2.11,0,0,1,8.23,4.28c.15,0,.32,0,.31.23A.44.44,0,0,1,8.16,5c-.67.08-1.12.66-1.54,1.47a1.5,1.5,0,0,1-1.13.94A1.7,1.7,0,0,0,4.1,8.5a1.61,1.61,0,0,1-1.35,1,1.68,1.68,0,0,0-1.38.88c-.17.26-.41.73-.62.43s.1-.62.28-.91A2.2,2.2,0,0,1,1.2,9.65Z"/><path class="cls-1" d="M18.26,0a1.36,1.36,0,0,1,1.29.37,1.61,1.61,0,0,0,1.81.46,1.68,1.68,0,0,1,1.85.6c.14.18.27.4.06.61s-.39,0-.51-.1a1.38,1.38,0,0,0-1.65-.38A1.77,1.77,0,0,1,19.32,1,1.26,1.26,0,0,0,17.81.69c-.28.14-.62.21-.69-.13s.31-.4.56-.47A3.68,3.68,0,0,1,18.26,0Z"/></g></g></svg>