<svg xmlns="http://www.w3.org/2000/svg" viewBox="0 0 26.36 28.71"><defs><style>.cls-1{fill:#595959;}</style></defs><title>Powerup_rock</title><g id="Layer_2" data-name="Layer 2"><g id="Crop_Marks" data-name="Crop Marks"><path class="cls-1" d="M8.18,28.71a.5.5,0,0,1-.24-.06L6.66,28l-1.74-.81-2.08-1-.06,0A.41.41,0,0,1,2.51,26l-.84-2.27c-.19-.51-.38-1-.56-1.51L0,19.25a.44.44,0,0,1,0-.2c.12-.94.23-1.89.34-2.83a.47.47,0,0,1,.19-.35L1.9,14.74l1.22-1,1.5-1.24,1.45-1.2.41-.34a.35.35,0,0,1,.26-.08l2.86.29,2.74.28,1.2.12a.38.38,0,0,1,.27.14l1.5,1.78,1.18,1.38c.35.41.69.82,1,1.22a.7.7,0,0,1,.17.53c0,.83-.06,1.66-.09,2.5l-.06,1.39-.06,2a.79.79,0,0,1,0,.22c-.33.71-.65,1.41-1,2.12-.17.37-.34.74-.5,1.11a.32.32,0,0,1-.19.17l-2.89,1-2.29.8-2.07.72Z"/><path class="cls-1" d="M3.19,8.42c.38.49.74,1,1.11,1.49l.75,1,.67-.56L6.14,10a.34.34,0,0,1,.27-.09c1,.11,2,.2,2.95.3l1.4.14.16-.32c.19-.39.38-.79.58-1.19s.47-1,.71-1.47L12.9,6c.06-.13.12-.26.19-.39a.3.3,0,0,1,.17-.16L14.52,5l0-.06L14.11,3.7c-.09-.3-.18-.61-.28-.91a.22.22,0,0,0-.08-.15l-.21-.13-1.3-.7L10.79,1,9,0A.2.2,0,0,0,8.8,0L8,.26,6.51.74a.35.35,0,0,0-.13.08l-1,.86-.73.6L3.35,3.37a.47.47,0,0,0-.19.33c0,.36-.09.71-.14,1.07s-.1.82-.16,1.22-.13,1-.2,1.56a.26.26,0,0,0,0,.2C2.87,8,3,8.2,3.19,8.42Z"/><path class="cls-1" d="M26.36,11.13a.46.46,0,0,0,0-.19l-.63-1.51-.44-1.08c-.27-.64-.54-1.28-.8-1.93a.6.6,0,0,0-.31-.35l-1.21-.56-1.38-.64L19.79,4a.28.28,0,0,0-.25,0l-1,.33-2.18.74-2.27.77A.23.23,0,0,0,14,6l-.2.39c-.23.48-.45.95-.68,1.42l-.72,1.47-.57,1.2,0,0,1.27.13,1.24.13a.38.38,0,0,1,.28.15l1.55,1.83c.41.47.81,1,1.22,1.43S18,15,18.4,15.44a.72.72,0,0,1,.17.55c0,.86-.06,1.72-.09,2.58,0,.12,0,.25,0,.37L20,19h1.18a.34.34,0,0,0,.2,0l.23-.2L23,17.47l1.47-1.41,1.85-1.77a.26.26,0,0,0,.08-.19v-3Z"/></g></g></svg>