<svg xmlns="http://www.w3.org/2000/svg" viewBox="0 0 32.82 30.29"><defs><style>.cls-1{fill:#595959;}</style></defs><title>Powerup_wall</title><g id="Layer_2" data-name="Layer 2"><g id="Crop_Marks" data-name="Crop Marks"><path class="cls-1" d="M4.92,30.29V18c0-2.81,1.27-6.2,2.82-7.53l8.83-7.56c1.55-1.32,2.82-.1,2.82,2.71V17.91Z"/><polygon class="cls-1" points="30.9 22.71 32.82 26.83 23.19 29.05 25.66 27.02 12.15 25.8 17.05 21.77 28.55 24.64 30.9 22.71"/><path class="cls-1" d="M3,8.29,12.33.54A1.71,1.71,0,0,1,13.92.05h0l.05,0h0l3.82,1.36h0a1.71,1.71,0,0,0-1.66.48L6.82,9.66c-1.64,1.36-3,4.84-3,7.73V30L0,28.64V16C0,13.13,1.34,9.65,3,8.29Z"/></g></g></svg>